<?xml version="1.0" standalone="no"?><!DOCTYPE svg PUBLIC "-//W3C//DTD SVG 1.1//EN" "http://www.w3.org/Graphics/SVG/1.1/DTD/svg11.dtd"><svg t="1640758884478" class="icon" viewBox="0 0 1024 1024" version="1.1" xmlns="http://www.w3.org/2000/svg" p-id="3312" xmlns:xlink="http://www.w3.org/1999/xlink" width="200" height="200"><defs><style type="text/css"></style></defs><path d="M825.142857 313.142857l-166.857143 166.857143v470.857143q0 26.285714-18.857143 45.142857t-45.142857 18.857143-45.142857-18.857143-18.857143-45.142857v-219.428572h-36.571428v219.428572q0 26.285714-18.857143 45.142857t-45.142857 18.857143-45.142857-18.857143-18.857143-45.142857V480L198.857143 313.142857q-16-16-16-38.857143t16-38.857143 38.857143-16 38.857143 16l130.285714 130.285715h210.285714l130.285714-130.285715q16-16 38.857143-16t38.857143 16 16 38.857143-16 38.857143z m-185.142857-93.714286q0 53.142857-37.428571 90.571429T512 347.428571t-90.571429-37.428571T384 219.428571t37.428571-90.571428T512 91.428571t90.571429 37.428572T640 219.428571z" p-id="3313"></path></svg>